<svg width="59" height="25" viewBox="0 0 59 25" fill="none" xmlns="http://www.w3.org/2000/svg">
<path d="M1.01367 19.9035C4.07777 20.1633 25.987 21.9988 28.9765 21.9988C32.581 21.9988 32.9484 19.9868 32.9484 19.9868C32.9484 19.9868 36.5582 9.49556 36.7259 8.54716C36.8937 7.60365 37.5965 8.76036 37.5965 8.76036L38.6986 8.20896C38.6986 8.20896 41.744 10.9047 43.887 13.1127C43.2481 13.7009 42.7077 14.3797 42.2951 15.1468C41.3075 16.9897 41.161 19.0776 41.8798 21.0234C41.997 21.342 42.3244 21.5405 42.6705 21.5405C42.761 21.5405 42.8488 21.5307 42.9393 21.4989" stroke="#3A4156" stroke-miterlimit="10"/>
<path d="M56.3102 16.5657C56.4566 16.9676 56.9278 17.1808 57.3671 17.046C57.8037 16.9063 58.0353 16.4726 57.8835 16.0707C56.3901 12.0393 51.5849 9.87052 47.1738 11.2355C46.29 11.51 45.4807 11.9095 44.7619 12.4118L39.4031 7.30468L37.5263 5.34171L36.4242 4.18744C36.2858 4.24626 36.1713 4.30998 36.0568 4.37369C35.165 3.31011 34.1854 2.3617 32.8357 1.73679C31.0095 0.893761 28.8239 1.42556 26.9364 0.739375C25.7358 0.305609 25.2194 2.07253 26.4067 2.50384C27.586 2.93516 28.7839 2.98417 30.0431 3.04054C32.3458 3.14101 33.6183 4.37614 34.8882 5.98868C34.9707 6.09405 35.0665 6.16757 35.165 6.23129C35.0559 6.50576 34.5235 6.62339 34.5235 6.62339C32.4816 2.02351 28.1503 6.47636 24.1305 10.3925C22.9379 10.5199 21.8198 10.8312 21.0265 11.5835C20.0495 12.5099 18.5454 13.9607 17.5871 12.2158C17.1878 11.4978 16.477 10.6572 15.2471 10.6106C14.5203 10.5812 14.5496 11.711 14.6401 12.228C11.1927 10.2504 6.82679 13.3039 6.82679 13.3039L7.69464 13.7009C6.13997 14.7351 5.12305 16.4015 5.12305 18.2934" stroke="#3A4156" stroke-miterlimit="10"/>
<path d="M49.339 13.9238C49.7117 13.8478 50.0977 13.7988 50.497 13.7988C52.0384 13.7988 53.4253 14.4139 54.3997 15.3697C55.2755 16.2299 55.8239 17.3768 55.8239 18.6389C55.8239 21.3125 53.436 23.4789 50.497 23.4789C47.558 23.4789 45.1621 21.3101 45.1621 18.6389C45.1621 16.3304 46.9564 14.4066 49.339 13.9214V13.9238Z" stroke="#3A4156" stroke-miterlimit="10"/>
<path d="M10.3084 13.9536C10.6864 13.8776 11.0777 13.8286 11.4824 13.8286C13.0477 13.8286 14.4507 14.4511 15.441 15.4215C16.3301 16.294 16.8865 17.4556 16.8865 18.7373C16.8865 21.4477 14.464 23.6484 11.4824 23.6484C8.50081 23.6484 6.07031 21.4477 6.07031 18.7373C6.07031 16.3969 7.8912 14.4437 10.3084 13.9536Z" stroke="#3A4156" stroke-miterlimit="10"/>
<path d="M15.3516 13.0981C15.3516 13.0981 17.5558 14.1519 18.6446 18.3597" stroke="#3A4156" stroke-miterlimit="10"/>
<path d="M20.7695 16.4066L23.6287 14.6372L24.7707 14.9705L27.1613 19.4209" stroke="#5451FB" stroke-miterlimit="10" stroke-linecap="round"/>
<path d="M32.9339 14.3945L29.8272 12.4683L28.584 12.7403L27.0586 19.335" stroke="#5451FB" stroke-miterlimit="10" stroke-linecap="round"/>
<path d="M26.0723 12.3411C26.4982 11.8167 34.7428 11.7775 35.3125 9.41992" stroke="#3A4156" stroke-miterlimit="10"/>
</svg>
