<svg width="61" height="34" viewBox="0 0 61 34" fill="none" xmlns="http://www.w3.org/2000/svg">
<path d="M49.0379 33.3389V14.1208L33.209 4.87207V33.3389" stroke="#394356" stroke-miterlimit="10"/>
<path d="M38.0664 33.3388V24.8203H44.3756V33.3388" stroke="#394356" stroke-miterlimit="10"/>
<path d="M43.666 14.7114H38.7012V19.2819H43.666V14.7114Z" stroke="#394356" stroke-miterlimit="10"/>
<path d="M33.3871 5.25189L31.6328 4.22751V1L50.8506 12.3465V15.1427L48.7476 13.7973" stroke="#394356" stroke-miterlimit="10"/>
<path d="M9.60547 30.3121V18.0073" stroke="#394356" stroke-miterlimit="10"/>
<path d="M14.1992 33.1474V16.9805" stroke="#394356" stroke-miterlimit="10"/>
<path d="M4.5918 18.8898L21.5814 15.3143C21.7411 15.2751 33.1483 15.3143 33.1483 15.3143" stroke="#394356" stroke-miterlimit="10"/>
<path d="M20.7461 33.2581V27.749H31.7433V33.2581" stroke="#394356" stroke-miterlimit="10"/>
<path d="M5.91797 30.1821H14.1599" stroke="#394356" stroke-miterlimit="10"/>
<path d="M28.6824 20.8252H21.8594V27.2337H28.6824V20.8252Z" stroke="#394356" stroke-miterlimit="10"/>
<path d="M22.0664 22.4897H28.6126" stroke="#394356" stroke-miterlimit="10"/>
<path d="M22.0664 24.2417H28.6126" stroke="#394356" stroke-miterlimit="10"/>
<path d="M22.0664 25.7832H28.6126" stroke="#394356" stroke-miterlimit="10"/>
<path d="M5.64322 25.2662C5.81626 25.004 5.92274 24.7026 5.92274 24.3717C5.92274 23.4209 5.08684 22.6514 4.05394 22.6514C3.02104 22.6514 2.18513 23.4209 2.18513 24.3717C2.18513 24.629 2.25169 24.8717 2.36083 25.0922C1.27735 25.5922 0.529297 26.6214 0.529297 27.8149C0.529297 29.4961 2.00943 30.8611 3.83831 30.8611C5.66718 30.8611 7.14732 29.4985 7.14732 27.8149C7.14732 26.7464 6.54834 25.8103 5.64588 25.2662H5.64322Z" stroke="#5451FA" stroke-miterlimit="10" stroke-linecap="round"/>
<path d="M3.86328 26.9551V33.1773" stroke="#394356" stroke-miterlimit="10"/>
<path d="M55.0435 30.2928C55.0435 30.2928 51.9102 29.3321 51.9102 26.4477C51.9102 23.5633 53.8269 19.8701 55.2298 19.8701C56.5289 19.8701 60.8895 28.8983 55.0435 30.2928Z" stroke="#5451FA" stroke-miterlimit="10" stroke-linecap="round"/>
<path d="M55.1309 26.0632V33.501" stroke="#394356" stroke-miterlimit="10"/>
<path d="M14.3789 21.2275H21.5054" stroke="#394356" stroke-miterlimit="10"/>
<path d="M0 33.2578H60.2783" stroke="#394356" stroke-miterlimit="10"/>
<path d="M39.2891 28.2734V29.7291" stroke="#394356" stroke-miterlimit="10"/>
</svg>
