<svg width="26" height="39" viewBox="0 0 26 39" fill="none" xmlns="http://www.w3.org/2000/svg">
<path d="M3.62982 10.9529C3.62982 10.9529 1.97398 15.7365 4.14361 22.2553C6.31323 28.774 10.3596 31.1879 12.8807 31.1389C15.6786 31.0874 20.5316 29.1931 22.4749 20.7824C24.4156 12.3718 22.3605 9.0585 20.3053 7.32344C18.2502 5.58837 15.218 3.94153 9.11378 5.53691C4.889 6.6397 3.63248 10.9504 3.63248 10.9504L3.62982 10.9529Z" stroke="#3A4156" stroke-miterlimit="10"/>
<path d="M8.19139 29.0803C8.19139 29.0803 8.87821 35.9103 5.85938 37.3096" stroke="#3A4156" stroke-miterlimit="10"/>
<path d="M17.9344 29.3401C17.9344 29.3401 17.2475 36.1701 20.2664 37.5694" stroke="#3A4156" stroke-miterlimit="10"/>
<path d="M3.21385 18.4788C3.21385 18.4788 2.62286 17.2657 1.68047 18.3538C0.738083 19.4419 1.46484 21.3975 1.86948 21.9171C2.27412 22.4366 3.29105 23.7845 4.64341 23.6129" stroke="#3A4156" stroke-miterlimit="10"/>
<path d="M22.8612 18.4788C22.8612 18.4788 23.4522 17.2657 24.3946 18.3538C25.337 19.4419 24.6102 21.3975 24.2056 21.9171C23.8009 22.4366 22.784 23.7845 21.4316 23.6129" stroke="#3A4156" stroke-miterlimit="10"/>
<path d="M11.1563 5.07878C11.1563 5.07878 12.1706 2.45903 16.0759 1.80961C16.0759 1.80961 12.0721 0.150516 7.40275 1.97135C-2.56155 5.86054 2.24091 18.0477 2.24091 18.0477" stroke="#3A4156" stroke-miterlimit="10"/>
<path d="M16.0742 1.80959C16.0742 1.80959 23.3737 1.40033 24.5105 9.21057C25.4875 15.9229 23.7784 17.9153 23.7784 17.9153" stroke="#3A4156" stroke-miterlimit="10"/>
<path d="M3.00195 17.0696C3.00195 17.0696 3.58496 14.9865 5.2967 12.8324C4.99588 13.4573 4.75629 14.1484 4.59922 14.9351C5.42182 13.0603 6.87267 11.438 8.67226 10.2862C9.47622 9.77154 10.3521 9.35247 11.2731 9.04614C11.3104 9.0829 11.345 9.11721 11.3796 9.14907C12.5962 10.3499 14.1749 11.2346 15.8866 11.7002C16.8556 11.9649 17.8672 12.0948 18.8788 12.0727C17.8433 11.8031 16.8636 11.362 15.9984 10.7739C18.586 11.4184 20.8807 13.004 22.2783 15.1091C22.2144 14.8125 22.1452 14.516 22.0707 14.2195C22.7575 15.3076 23.1595 16.4373 23.1036 17.3147" stroke="#3A4156" stroke-miterlimit="10"/>
<path d="M12.6895 13.9674V19.8" stroke="#5451FB" stroke-width="0.5" stroke-miterlimit="10" stroke-dasharray="0.5 0.5"/>
<path d="M4.49609 19.9323C4.49609 19.9323 4.57596 20.0082 4.73835 20.121" stroke="#5451FB" stroke-width="0.5" stroke-miterlimit="10" stroke-dasharray="0.5 0.5"/>
<path d="M5.25977 20.432C6.09035 20.8535 7.60243 21.324 9.81997 20.9001" stroke="#5451FB" stroke-width="0.5" stroke-miterlimit="10" stroke-dasharray="0.5 0.5"/>
<path d="M10.1289 20.8367C10.2301 20.8146 10.3312 20.7901 10.4377 20.7632" stroke="#5451FB" stroke-width="0.5" stroke-miterlimit="10" stroke-dasharray="0.5 0.5"/>
<path d="M5.56641 24.5199C5.56641 24.5199 5.64095 24.5983 5.7847 24.7307" stroke="#5451FB" stroke-width="0.5" stroke-miterlimit="10" stroke-dasharray="0.5 0.5"/>
<path d="M6.20312 25.0737C6.75418 25.4952 7.65664 26.0662 8.87589 26.4584" stroke="#5451FB" stroke-width="0.5" stroke-miterlimit="10" stroke-dasharray="0.5 0.5"/>
<path d="M9.14453 26.5393C9.24303 26.5687 9.34685 26.5957 9.44801 26.6202" stroke="#5451FB" stroke-width="0.5" stroke-miterlimit="10" stroke-dasharray="0.5 0.5"/>
<path d="M21.0919 19.9321C21.0919 19.9321 21.012 20.0081 20.8496 20.1208" stroke="#5451FB" stroke-width="0.5" stroke-miterlimit="10" stroke-dasharray="0.5 0.5"/>
<path d="M20.3258 20.432C19.4952 20.8535 17.9832 21.324 15.7656 20.9001" stroke="#5451FB" stroke-width="0.5" stroke-miterlimit="10" stroke-dasharray="0.5 0.5"/>
<path d="M15.4592 20.8367C15.358 20.8146 15.2569 20.7901 15.1504 20.7632" stroke="#5451FB" stroke-width="0.5" stroke-miterlimit="10" stroke-dasharray="0.5 0.5"/>
<path d="M20.021 24.52C20.021 24.52 19.9465 24.5984 19.8027 24.7308" stroke="#5451FB" stroke-width="0.5" stroke-miterlimit="10" stroke-dasharray="0.5 0.5"/>
<path d="M19.3857 25.0737C18.8346 25.4952 17.9321 26.0662 16.7129 26.4584" stroke="#5451FB" stroke-width="0.5" stroke-miterlimit="10" stroke-dasharray="0.5 0.5"/>
<path d="M16.4441 26.5393C16.3456 26.5687 16.2418 26.5957 16.1406 26.6202" stroke="#5451FB" stroke-width="0.5" stroke-miterlimit="10" stroke-dasharray="0.5 0.5"/>
<path d="M4.6843 16.2885C4.6843 16.2885 6.0686 15.0142 6.93911 14.921C7.80963 14.8279 9.69441 15.2764 10.9083 16.1047C10.9083 16.1047 11.0228 16.3547 10.8231 16.5262C10.6235 16.6978 10.3653 16.4993 10.3653 16.4993C10.3653 16.4993 8.66683 15.6587 8.09447 15.5656C7.52212 15.4724 6.85127 15.5386 6.85127 15.5386L4.80942 16.3277L4.68164 16.2885H4.6843Z" fill="#3A4156"/>
<path d="M21.077 15.3544C21.077 15.3544 19.6927 14.0801 18.8222 13.987C17.9517 13.8938 16.0669 14.3423 14.853 15.1706C14.853 15.1706 14.7385 15.4206 14.9382 15.5921C15.1378 15.7637 15.396 15.5652 15.396 15.5652C15.396 15.5652 17.0945 14.7246 17.6668 14.6315C18.2392 14.5384 18.91 14.6045 18.91 14.6045L20.9519 15.3936L21.0797 15.3544H21.077Z" fill="#3A4156"/>
<path d="M9.88075 19.0231C9.87542 19.0108 9.44948 17.7267 8.15836 17.4155C6.81931 17.092 5.83433 18.6334 5.82634 18.6481L5.42969 18.4374C5.47761 18.3614 6.60102 16.6043 8.27549 17.0062C9.81952 17.3787 10.3014 18.8417 10.32 18.903L9.88075 19.0206V19.0231Z" fill="#3A4156"/>
<path d="M9.20418 17.6729C9.16158 17.6508 8.77558 17.4523 8.80486 17.4499C8.67442 17.4082 8.53865 17.3813 8.41619 17.3224C8.21653 17.2808 8.1979 17.2587 8.36295 17.2612C8.2964 17.2612 8.22984 17.2612 8.16595 17.2612C7.89708 17.2734 7.6282 17.3151 7.35933 17.3347C7.2422 17.3445 7.12773 17.3371 7.01858 17.3224C6.93339 17.4376 6.88281 17.5773 6.88281 17.7292V18.4669C6.88281 18.8663 7.23687 19.1947 7.67346 19.1947H8.47476C8.90868 19.1947 9.26541 18.8688 9.26541 18.4669V17.7292C9.26541 17.7292 9.26541 17.7096 9.26541 17.6998C9.24677 17.69 9.22814 17.6827 9.21216 17.6753L9.20418 17.6729Z" fill="#3A4156"/>
<path d="M15.8943 19.0232L15.4551 18.9056C15.4737 18.8443 15.9556 17.3813 17.4996 17.0088C19.1714 16.6044 20.2975 18.364 20.3454 18.4399L19.9487 18.6507C19.9381 18.636 18.9504 17.0945 17.6167 17.418C16.3256 17.7293 15.897 19.0134 15.8943 19.0257V19.0232Z" fill="#3A4156"/>
<path d="M16.569 17.6729C16.6116 17.6508 16.9976 17.4523 16.9684 17.4499C17.0988 17.4082 17.2346 17.3813 17.357 17.3224C17.5567 17.2808 17.5753 17.2587 17.4103 17.2612C17.4768 17.2612 17.5434 17.2612 17.6073 17.2612C17.8761 17.2734 18.145 17.3151 18.4139 17.3347C18.531 17.3445 18.6455 17.3371 18.7546 17.3224C18.8398 17.4376 18.8904 17.5773 18.8904 17.7292V18.4669C18.8904 18.8663 18.5363 19.1947 18.0998 19.1947H17.2985C16.8645 19.1947 16.5078 18.8688 16.5078 18.4669V17.7292C16.5078 17.7292 16.5078 17.7096 16.5078 17.6998C16.5264 17.69 16.5451 17.6827 16.5611 17.6753L16.569 17.6729Z" fill="#3A4156"/>
<path d="M12.1641 22.6008C12.1641 22.6008 11.7062 22.6351 11.5917 22.9782C11.5917 22.9782 11.5545 23.1179 11.81 23.0738C12.0656 23.0297 12.1907 22.6891 12.1907 22.6891L12.1614 22.6008H12.1641Z" fill="#3A4156"/>
<path d="M13.5172 22.594C13.5172 22.594 13.9644 22.6896 14.023 23.0425C14.023 23.0425 14.039 23.1871 13.7914 23.1086C13.5438 23.0302 13.4746 22.6773 13.4746 22.6773L13.5172 22.594Z" fill="#3A4156"/>
<path d="M16.4898 24.5859C16.3461 24.4144 15.976 24.7183 15.976 24.7183C15.976 24.7183 15.8589 24.8236 15.5155 24.88C15.401 24.8629 15.3318 24.8359 15.3318 24.8359C14.0806 24.4609 13.1435 24.5688 13.1435 24.5688C13.1435 24.5688 13.085 24.7134 12.8374 24.7134C12.5898 24.7134 12.494 24.5908 12.494 24.5908C11.7459 24.4781 10.8142 24.804 10.343 24.9976C10.2126 24.9976 10.0422 24.9731 9.89044 24.8604C9.58962 24.6374 9.46184 24.7036 9.46184 24.7036C9.1903 24.8482 9.2329 25.0981 9.2329 25.0981C9.2329 25.0981 10.0182 25.6103 10.3749 26.1764C10.7317 26.7425 11.5889 27.5659 12.8028 27.5831C13.9608 27.6002 14.7728 26.9925 15.1881 26.321C15.6033 25.6495 16.5005 24.9535 16.5005 24.9535C16.5005 24.9535 16.6283 24.7575 16.4872 24.5859H16.4898ZM15.3611 25.375C15.3611 25.375 15.1747 25.5319 14.9032 25.7426C14.6317 25.9534 13.8889 26.5048 12.3609 26.3872C10.8328 26.2695 10.4894 25.3089 10.4894 25.3089C10.4894 25.3089 11.0644 25.3089 11.5037 25.3432C11.9403 25.3775 14.0167 25.326 14.3016 25.2917C14.5864 25.2574 15.401 25.1912 15.401 25.1912L15.3584 25.375H15.3611Z" fill="#3A4156"/>
<path d="M3.72544 12.9085C3.72544 12.9085 4.98196 8.59782 9.20674 7.49503C15.311 5.89965 18.3431 7.54649 20.3983 9.28155C21.7613 10.4309 23.1243 12.2763 23.3213 15.8371C23.5635 11.024 21.9796 8.75221 20.3983 7.41661C18.8037 6.0712 16.9588 4.54444 13.0615 4.74049C11.9301 4.79685 10.6283 4.99781 9.10824 5.39236C4.87814 6.48536 3.72012 11.046 3.72012 11.046C3.72012 11.046 2.98005 13.1854 3.13711 16.5502C3.24626 14.2809 3.72012 12.911 3.72012 12.911L3.72544 12.9085Z" fill="#3A4156"/>
</svg>
