<svg width="47" height="28" viewBox="0 0 47 28" fill="none" xmlns="http://www.w3.org/2000/svg">
<path d="M44.7589 23.8082C46.5985 23.122 46.1432 20.3013 45.1103 19.3039C45.0092 19.2083 44.5753 18.9289 44.546 18.8334C44.4448 18.4903 44.3303 17.9315 44.2478 17.4732C43.5716 13.6478 31.0996 7.13148 27.6176 5.66843C21.8221 3.22758 16.7881 3.60988 11.4399 3.94072C10.3963 4.00444 9.16379 4.06571 8.22939 4.51908C8.18679 4.53868 8.14952 4.55829 8.11757 4.57789C6.61614 5.25918 4.71806 6.88396 3.69847 10.756C3.5414 11.1898 3.41096 11.6309 3.32843 12.0843C3.13942 13.1135 3.23526 14.1673 2.8812 15.1721C2.56707 16.0641 2.00802 16.8826 1.77376 17.7943C1.6726 18.1766 0.932526 20.093 1.47294 20.4704C1.47294 20.4704 4.99757 15.699 9.27293 18.0614C12.7736 19.995 12.0522 23.8768 12.0522 23.8768C12.0522 23.8768 27.9104 23.894 33.9348 23.894C33.9348 23.894 33.2213 17.7698 39.8074 17.9462" stroke="#394356" stroke-miterlimit="10"/>
<path d="M6.38706 8.14124C7.38003 6.58017 8.67116 5.53864 9.27812 5.81802C9.87976 6.09739 9.56296 7.58739 8.57 9.15336C7.57703 10.7144 6.2859 11.756 5.67893 11.4741C5.07463 11.1948 5.39409 9.69986 6.38706 8.13879V8.14124Z" stroke="#394356" stroke-miterlimit="10"/>
<path d="M12.5102 12.2952C11.3229 12.2119 10.3087 11.3125 10.4604 10.3003C10.676 8.8569 11.3016 7.01891 13.04 6.5876C14.8076 6.14893 17.4591 6.23225 19.3173 6.36949C20.5046 6.46016 22.3867 6.82776 23.5101 7.17821C26.2893 8.05309 31.2036 9.85432 33.8258 12.3466C34.6244 13.1039 34.0893 13.7925 32.902 13.7092L12.5076 12.2952H12.5102Z" stroke="#5451FB" stroke-miterlimit="10"/>
<path d="M39.3233 26.4282C36.7623 26.4282 34.6699 24.6441 34.6699 22.4557C34.6699 20.2672 36.7597 18.4832 39.3233 18.4832C41.8869 18.4832 43.974 20.2623 43.974 22.4557C43.974 24.649 41.8843 26.4282 39.3233 26.4282Z" stroke="#394356" stroke-miterlimit="10"/>
<path d="M6.57014 26.6875C3.84147 26.6875 1.61328 24.7858 1.61328 22.4552C1.61328 20.1246 3.84147 18.2229 6.57014 18.2229C9.29881 18.2229 11.5243 20.1173 11.5243 22.4552C11.5243 24.7931 9.29615 26.6875 6.57014 26.6875Z" stroke="#394356" stroke-miterlimit="10"/>
<path d="M21.2344 16.3948H24.586" stroke="#3A4156" stroke-miterlimit="10"/>
<path d="M19.3047 6.36938V12.6725" stroke="#5451FB" stroke-miterlimit="10"/>
<path d="M14.6049 3.85019L11.7617 1.30396" stroke="#394356" stroke-miterlimit="10"/>
</svg>
